<?xml version="1.0" encoding="utf-8"?>
<!-- Generator: Adobe Illustrator 13.0.0, SVG Export Plug-In . SVG Version: 6.00 Build 14948)  -->
<!DOCTYPE svg PUBLIC "-//W3C//DTD SVG 1.1//EN" "http://www.w3.org/Graphics/SVG/1.1/DTD/svg11.dtd">
<svg version="1.1" id="Layer_1" xmlns="http://www.w3.org/2000/svg" xmlns:xlink="http://www.w3.org/1999/xlink" x="0px" y="0px"
	 width="156.465px" height="154.718px" viewBox="0 0 156.465 154.718" enable-background="new 0 0 156.465 154.718"
	 xml:space="preserve">
<g>
	<defs>
		<rect id="SVGID_1_" x="0" y="0" width="156.465" height="154.718"/>
	</defs>
	<clipPath id="SVGID_2_">
		<use xlink:href="#SVGID_1_"  overflow="visible"/>
	</clipPath>
	<path clip-path="url(#SVGID_2_)" d="M50.942,89.139c0.061,5.078-3.961,9.161-9.034,9.17c-4.918,0.009-9.333-4.378-9.253-9.193
		c0.075-4.449,4.508-8.921,9.023-9.103C46.463,79.821,50.883,84.175,50.942,89.139"/>
	<path clip-path="url(#SVGID_2_)" d="M50.938,118.701c0.042,5.05-4.147,9.376-9.049,9.346c-4.464-0.029-9.06-4.453-9.232-8.89
		c-0.192-4.945,3.944-9.19,9.03-9.269C46.992,109.807,50.894,113.526,50.938,118.701"/>
	<path clip-path="url(#SVGID_2_)" d="M69.264,118.806c0.016-5.347,3.678-8.966,9.017-8.912c5.322,0.054,8.847,3.737,8.762,9.153
		c-0.077,4.896-3.974,8.903-8.736,8.982C73.389,128.112,69.249,123.888,69.264,118.806"/>
	<path clip-path="url(#SVGID_2_)" d="M114.396,98.298c-5.067-0.082-8.994-4.272-8.845-9.438c0.137-4.734,4.386-8.864,9.101-8.845
		c4.404,0.019,8.984,4.625,9.054,9.107C123.782,93.992,119.332,98.377,114.396,98.298"/>
	<path clip-path="url(#SVGID_2_)" d="M69.383,89.015c0.08-4.885,4.086-8.972,8.774-8.953c4.935,0.02,8.943,4.288,8.852,9.426
		c-0.088,4.929-3.956,8.786-8.817,8.794C73.083,98.29,69.296,94.306,69.383,89.015"/>
	<path clip-path="url(#SVGID_2_)" fill="none" stroke="#000000" stroke-width="13" stroke-miterlimit="10" d="M126.837,148.218
		H29.629c-12.774,0-23.129-10.354-23.129-23.128V42.969c0-12.773,10.355-23.129,23.129-23.129h97.208
		c12.772,0,23.128,10.356,23.128,23.129v82.121C149.965,137.864,139.61,148.218,126.837,148.218z"/>
	<rect x="12.411" y="56.23" clip-path="url(#SVGID_2_)" width="133.276" height="11.872"/>
	<path clip-path="url(#SVGID_2_)" d="M50.938,39.681L50.938,39.681c-4.653,0-8.426-3.772-8.426-8.426V8.426
		C42.512,3.773,46.285,0,50.938,0c4.653,0,8.425,3.773,8.425,8.426v22.829C59.363,35.909,55.591,39.681,50.938,39.681"/>
	<path clip-path="url(#SVGID_2_)" d="M105.546,39.681L105.546,39.681c-4.652,0-8.425-3.772-8.425-8.426V8.426
		c0-4.653,3.772-8.426,8.425-8.426c4.653,0,8.427,3.773,8.427,8.426v22.829C113.973,35.909,110.2,39.681,105.546,39.681"/>
</g>
</svg>
