<?xml version="1.0" encoding="utf-8"?>
<!-- Generator: Adobe Illustrator 23.0.5, SVG Export Plug-In . SVG Version: 6.00 Build 0)  -->
<svg version="1.1" id="Layer_1" xmlns="http://www.w3.org/2000/svg" xmlns:xlink="http://www.w3.org/1999/xlink" x="0px" y="0px"
	 viewBox="0 0 79.58 75.26" style="enable-background:new 0 0 79.58 75.26;" xml:space="preserve">
<style type="text/css">
	.st0{fill:#EE2E69;}
	.st1{fill:#231F20;}
	.st2{fill:#81CCF1;}
</style>
<g>
	<path class="st0" d="M28.34,25.41c-3.92,7.25-8.59,10.05-14.61,8.88C8.2,33.21,3.96,28.71,3.44,23.34
		c-0.57-5.82,2.4-10.95,7.64-13.19c5.71-2.45,10.98-0.69,16.22,5.52c1.28-6.15,4.51-10.8,10.07-13.66c3.83-1.97,7.9-2.45,12.12-1.64
		c8,1.54,14.29,8.57,14.86,16.57c0.62,8.77-4.31,16.51-12.34,19.29c-4.73,1.64-9.42,1.44-13.97-0.63
		C33.47,33.54,30.32,30.07,28.34,25.41z M45.94,24.04c2.95,0.01,5.38-2.36,5.42-5.31c0.05-2.96-2.46-5.51-5.4-5.5
		c-2.94,0.01-5.36,2.4-5.41,5.35C40.51,21.59,42.91,24.03,45.94,24.04z M15.71,17.69c-2.18-0.08-3.98,1.58-4.06,3.73
		c-0.09,2.21,1.65,4.08,3.84,4.12c2.12,0.04,3.94-1.69,4.03-3.83C19.6,19.61,17.86,17.77,15.71,17.69z"/>
	<path class="st0" d="M55.5,54.7c0,0,1,8-2,8l-5-15l-44,12L5,34.2c0,0,10,9,22-2c0,0,11.5,14.5,28.5,5.5v2h5v-2l17-5c0,0,2-1,2,1
		s0,26,0,26s1,3-4,1l-15-5v-1H55.5"/>
	<path class="st0" d="M2,65.2"/>
	<path d="M26.34,25.41c-3.92,7.25-8.59,10.05-14.61,8.88C6.2,33.21,1.96,28.71,1.44,23.34c-0.57-5.82,2.4-10.95,7.64-13.19
		c5.71-2.45,10.98-0.69,16.22,5.52c1.28-6.15,4.51-10.8,10.07-13.66c3.83-1.97,7.9-2.45,12.12-1.64c8,1.54,14.29,8.57,14.86,16.57
		c0.62,8.77-4.31,16.51-12.34,19.29c-4.73,1.64-9.42,1.44-13.97-0.63C31.47,33.54,28.32,30.07,26.34,25.41z M43.94,24.04
		c2.95,0.01,5.38-2.36,5.42-5.31c0.05-2.96-2.46-5.51-5.4-5.5c-2.94,0.01-5.36,2.4-5.41,5.35C38.51,21.59,40.91,24.03,43.94,24.04z
		 M13.71,17.69c-2.18-0.08-3.98,1.58-4.06,3.73c-0.09,2.21,1.65,4.08,3.84,4.12c2.12,0.04,3.94-1.69,4.03-3.83
		C17.6,19.61,15.86,17.77,13.71,17.69z"/>
	<path d="M53.5,54.7c0,0,1,8-2,8l-5-15l-44,12L3,34.2c0,0,10,9,22-2c0,0,11.5,14.5,28.5,5.5v2h5v-2l17-5c0,0,2-1,2,1s0,26,0,26
		s1,3-4,1l-15-5v-1H53.5"/>
	<path class="st1" d="M0,65.2"/>
	<g>
		<g>
			<path class="st2" d="M8.77,67.52l-0.33,0.67l0.4,0.64l0.74-0.04l0.33-0.67l-0.4-0.64L8.77,67.52z M9.44,68.57l-0.48,0.03
				l-0.26-0.41l0.22-0.44l0.48-0.03l0.26,0.41L9.44,68.57z"/>
			<path class="st2" d="M9.01,72.1l-0.33,0.67l0.4,0.64l0.74-0.04l0.33-0.67l-0.4-0.64L9.01,72.1z M9.68,73.15L9.2,73.18l-0.26-0.41
				l0.22-0.44l0.48-0.03l0.26,0.41L9.68,73.15z"/>
			<polygon class="st2" points="34.06,57.46 31.25,58.41 30.15,63.37 32.97,62.39 			"/>
			<path class="st2" d="M7.34,71.65c0.03,0.46,0.07,0.88,0.1,1.25c0.03,0.36,0.07,0.67,0.09,0.88c0.02,0.21,0.04,0.33,0.04,0.33
				s0-0.12-0.01-0.34c-0.01-0.21-0.01-0.52-0.03-0.88c-0.02-0.37-0.03-0.79-0.05-1.25c-0.03-0.46-0.05-0.94-0.08-1.43
				c-0.03-0.49-0.07-0.97-0.1-1.43c-0.03-0.46-0.07-0.88-0.1-1.25c-0.03-0.36-0.07-0.67-0.09-0.88c-0.02-0.21-0.04-0.33-0.04-0.33
				s0,0.12,0.01,0.34c0.01,0.21,0.01,0.52,0.03,0.88c0.02,0.37,0.03,0.79,0.05,1.25c0.03,0.46,0.05,0.94,0.08,1.43
				C7.28,70.71,7.31,71.19,7.34,71.65z"/>
			<path class="st2" d="M9.43,75.19l2.78-0.15l2.78-0.17c0.93-0.06,1.85-0.12,2.78-0.18l0.04,0l0.03-0.01
				c0.2-0.08,0.37-0.17,0.54-0.28c0.17-0.11,0.33-0.24,0.47-0.39c0.15-0.15,0.26-0.33,0.36-0.53c0.04-0.1,0.09-0.2,0.1-0.31
				l0.03-0.16l0.01-0.16c0.01-0.11-0.01-0.22-0.01-0.33l0-0.04l0-0.02l0-0.01l0-0.02l0-0.01l-0.02-0.07
				c-0.01-0.04-0.02-0.1-0.04-0.15c-0.07-0.21-0.16-0.39-0.26-0.56c-0.2-0.34-0.44-0.65-0.68-0.94c-0.5-0.58-1.05-1.1-1.62-1.59
				c-0.57-0.49-1.18-0.93-1.81-1.34c-0.32-0.2-0.64-0.39-0.97-0.57c-0.33-0.18-0.68-0.34-1.02-0.48c-0.69-0.28-1.4-0.52-2.12-0.7
				c-0.72-0.18-1.45-0.33-2.18-0.4c-0.37-0.04-0.74-0.06-1.11-0.03c-0.18,0.02-0.37,0.04-0.55,0.1c-0.09,0.03-0.18,0.07-0.25,0.12
				c-0.08,0.06-0.14,0.13-0.17,0.22c0.07-0.18,0.26-0.26,0.43-0.3c0.18-0.04,0.36-0.05,0.54-0.06c0.36,0,0.73,0.03,1.09,0.09
				c0.72,0.11,1.44,0.29,2.14,0.5c0.7,0.22,1.39,0.47,2.05,0.77c0.34,0.15,0.66,0.32,0.97,0.5c0.32,0.18,0.63,0.38,0.93,0.58
				c0.61,0.41,1.18,0.87,1.74,1.35c0.55,0.48,1.08,1,1.54,1.56c0.23,0.28,0.45,0.57,0.62,0.88c0.09,0.15,0.16,0.31,0.21,0.46
				c0.01,0.03,0.02,0.07,0.03,0.12l0.01,0.07l0,0.05c0,0.08,0.02,0.16,0.01,0.24l-0.01,0.12l-0.03,0.11
				c-0.01,0.08-0.05,0.15-0.07,0.22c-0.07,0.14-0.16,0.27-0.27,0.39c-0.11,0.12-0.24,0.22-0.38,0.31c-0.13,0.08-0.28,0.16-0.42,0.21
				l-5.52,0.37L9.4,74.75l-1.39,0.09l-0.34,0.02c-0.06,0-0.11,0-0.17,0l-0.09,0c-0.01,0-0.04,0-0.06-0.01
				c-0.09-0.01-0.14-0.05-0.17-0.09c-0.01-0.02-0.02-0.05-0.03-0.08c-0.01-0.03,0-0.08,0-0.11l0.01-0.04l0-0.02L7.03,72.4
				l-0.15-2.13l-0.16-2.12l-0.08-1.06l-0.09-1.06l0.02,1.07l0.03,1.06l0.06,2.13l0.07,2.13l0.08,2.11
				c-0.01,0.07-0.02,0.13-0.01,0.21c0.01,0.08,0.04,0.17,0.09,0.25c0.05,0.08,0.12,0.14,0.19,0.18c0.07,0.04,0.15,0.06,0.22,0.08
				c0.04,0,0.06,0.01,0.11,0.01l0.09,0c0.06,0,0.12,0,0.18,0l0.36-0.01C8.5,75.23,8.96,75.21,9.43,75.19z"/>
			<path class="st2" d="M16.15,71.73l-0.33,0.67l0.4,0.64L16.95,73l0.33-0.67l-0.4-0.64L16.15,71.73z M16.81,72.78l-0.48,0.03
				l-0.26-0.41l0.22-0.44l0.48-0.03l0.26,0.41L16.81,72.78z"/>
			<path class="st2" d="M9.17,66.48c0.22,0.06,0.46,0.13,0.72,0.21c0.26,0.08,0.55,0.17,0.84,0.28c0.15,0.05,0.3,0.11,0.45,0.17
				c0.15,0.06,0.31,0.12,0.47,0.18c0.32,0.13,0.65,0.27,0.97,0.43c0.16,0.07,0.33,0.16,0.49,0.24c0.16,0.08,0.33,0.17,0.48,0.26
				c0.16,0.09,0.32,0.18,0.48,0.27c0.16,0.1,0.31,0.19,0.46,0.29c0.3,0.2,0.6,0.4,0.87,0.61c0.14,0.1,0.27,0.21,0.4,0.31
				c0.13,0.1,0.26,0.2,0.38,0.3c0.12,0.1,0.24,0.2,0.35,0.3c0.11,0.1,0.22,0.2,0.31,0.3c0.2,0.19,0.37,0.38,0.52,0.55
				c0.14,0.17,0.26,0.33,0.35,0.47c0.09,0.14,0.15,0.25,0.19,0.33c0.04,0.08,0.05,0.12,0.05,0.12s-0.04-0.19-0.21-0.47
				c-0.08-0.14-0.19-0.31-0.33-0.49c-0.14-0.18-0.3-0.38-0.5-0.58c-0.1-0.1-0.2-0.21-0.31-0.31c-0.11-0.11-0.22-0.21-0.34-0.32
				c-0.12-0.11-0.24-0.22-0.37-0.32c-0.13-0.11-0.26-0.21-0.4-0.32c-0.28-0.21-0.57-0.41-0.87-0.62c-0.15-0.1-0.31-0.2-0.47-0.3
				c-0.16-0.1-0.32-0.19-0.48-0.28c-0.16-0.09-0.33-0.17-0.49-0.26c-0.16-0.08-0.33-0.17-0.5-0.24c-0.33-0.16-0.66-0.29-0.98-0.42
				c-0.16-0.06-0.32-0.12-0.48-0.18c-0.16-0.05-0.31-0.1-0.46-0.15c-0.3-0.09-0.59-0.18-0.86-0.25c-0.53-0.14-0.98-0.23-1.3-0.29
				c-0.32-0.06-0.5-0.08-0.5-0.08s0.18,0.03,0.49,0.11C8.76,66.37,8.95,66.42,9.17,66.48z"/>
			<path class="st2" d="M16.31,68.15l4.24-1.47l0.91-4.1c-1.01,0.34-1.95,0.65-2.82,0.94c-2.9,0.95-4.83,1.58-4.83,1.58
				s1.92-0.67,4.8-1.67c0.88-0.3,1.85-0.64,2.88-0.99l0.17-0.78l-10.89,3.69c0,0,1.37,0.15,3.34,1.39
				C16.09,67.98,16.31,68.15,16.31,68.15z"/>
			<path class="st2" d="M47.56,68.38c0,0-0.43,0.01-1.18,0.03c-0.75,0.03-1.82,0.05-3.1,0.1c-1.28,0.05-2.78,0.1-4.39,0.18
				c-1.6,0.08-3.32,0.16-5.03,0.24c-1.71,0.1-3.42,0.19-5.02,0.28c-1.6,0.09-3.1,0.2-4.38,0.28c-1.28,0.08-2.35,0.17-3.1,0.22
				c-0.47,0.04-0.81,0.06-1,0.08l-0.02-0.03l-1.99,0.1c0,0,1.29,1.04,1.57,2.57c0.28,1.54-0.93,2.09-0.93,2.09l2.22-0.13
				c0.75-0.03,1.78-0.06,3.02-0.12c1.29-0.06,2.79-0.12,4.4-0.21c1.61-0.09,3.32-0.18,5.04-0.28c1.71-0.11,3.43-0.22,5.04-0.32
				c1.61-0.1,3.11-0.22,4.39-0.31c1.29-0.09,2.36-0.19,3.1-0.25c0.06-0.01,0.12-0.01,0.18-0.02l0.01,0.02l1.83-0.11l-0.26-4.2
				l-0.29-0.19l-1.47,0.07c0.06,0,0.12-0.01,0.18-0.01C47.14,68.42,47.56,68.38,47.56,68.38z M30.63,69.42l2.68,4.05
				c-1.17,0.07-2.33,0.15-3.46,0.22l-2.72-4.12c0.56-0.02,1.14-0.05,1.74-0.08C29.44,69.48,30.03,69.45,30.63,69.42z M24.24,74.09
				c-0.34,0.02-0.67,0.05-0.98,0.07l-2.88-4.36c0.19,0,0.53-0.01,1-0.02c0.64-0.02,1.51-0.04,2.54-0.08l2.78,4.21
				C25.82,73.97,24.99,74.04,24.24,74.09z M38.71,73.18c-0.76,0.04-1.55,0.09-2.34,0.13l-2.67-4.03c0.06,0,0.13-0.01,0.19-0.01
				c1.11-0.06,2.21-0.13,3.29-0.19l2.67,4.04C39.47,73.14,39.09,73.16,38.71,73.18z M47.47,68.92l0.07,0l0.01,0.08
				c0.04,0.51,0.07,1.02,0.09,1.54c0.01,0.26,0.01,0.51,0.02,0.77c0.01,0.26,0.01,0.51,0,0.77c-0.04-0.25-0.07-0.51-0.1-0.76
				c-0.02-0.26-0.05-0.51-0.07-0.77c-0.04-0.49-0.07-0.97-0.1-1.46c-0.26,0-0.52-0.01-0.79-0.01c-0.14,0-0.29-0.01-0.43-0.02
				c-0.14-0.01-0.29-0.01-0.43-0.02c0.14-0.02,0.29-0.03,0.43-0.04c0.14-0.01,0.29-0.02,0.43-0.03
				C46.89,68.94,47.18,68.93,47.47,68.92z M46.36,72.84c-0.05,0-0.1,0-0.15,0c-0.75,0.03-1.82,0.06-3.11,0.12
				c-0.08,0-0.17,0.01-0.26,0.01l-2.69-4.07c1.13-0.07,2.2-0.15,3.14-0.21c0.11-0.01,0.21-0.01,0.32-0.02L46.36,72.84z"/>
			<path class="st2" d="M46.4,57.76l-1.35-4.01l-1.47,0.5l-0.19,0.84c0.79-0.26,1.24-0.41,1.24-0.41s-0.45,0.16-1.25,0.44L42.5,59.1
				l-3.32,1.15l0.88-3.98c-0.07,0.03-0.15,0.05-0.23,0.08c-0.81,0.28-1.71,0.59-2.65,0.91l-0.88,3.98l-9.47,3.27l0.89-4.03
				c-0.99,0.33-1.98,0.67-2.94,0.99l-0.9,4.06l0.23-0.08l-7.8,2.69l29.15-9.6L46.4,57.76z M43.35,58.86
				c-0.15,0.04-0.27,0.07-0.36,0.1c-0.09,0.02-0.14,0.03-0.14,0.03s0.05-0.02,0.13-0.06c0.08-0.04,0.2-0.1,0.34-0.16
				c0.28-0.12,0.67-0.28,1.05-0.42c0.39-0.14,0.78-0.26,1.08-0.35c0.15-0.04,0.27-0.07,0.36-0.1c0.09-0.02,0.14-0.03,0.14-0.03
				s-0.05,0.02-0.13,0.06c-0.08,0.04-0.2,0.1-0.34,0.16c-0.28,0.12-0.67,0.28-1.05,0.42C44.04,58.65,43.65,58.77,43.35,58.86z"/>
		</g>
	</g>
	<g>
		<path d="M7.77,67.52l-0.33,0.67l0.4,0.64l0.74-0.04l0.33-0.67l-0.4-0.64L7.77,67.52z M8.44,68.57l-0.48,0.03l-0.26-0.41l0.22-0.44
			l0.48-0.03l0.26,0.41L8.44,68.57z"/>
		<path d="M8.01,72.1l-0.33,0.67l0.4,0.64l0.74-0.04l0.33-0.67l-0.4-0.64L8.01,72.1z M8.68,73.15L8.2,73.18l-0.26-0.41l0.22-0.44
			l0.48-0.03l0.26,0.41L8.68,73.15z"/>
		<polygon points="33.06,57.46 30.25,58.41 29.15,63.37 31.97,62.39 		"/>
		<path class="st1" d="M6.34,71.65c0.03,0.46,0.07,0.88,0.1,1.25c0.03,0.36,0.07,0.67,0.09,0.88c0.02,0.21,0.04,0.33,0.04,0.33
			s0-0.12-0.01-0.34c-0.01-0.21-0.01-0.52-0.03-0.88c-0.02-0.37-0.03-0.79-0.05-1.25c-0.03-0.46-0.05-0.94-0.08-1.43
			c-0.03-0.49-0.07-0.97-0.1-1.43c-0.03-0.46-0.07-0.88-0.1-1.25c-0.03-0.36-0.07-0.67-0.09-0.88c-0.02-0.21-0.04-0.33-0.04-0.33
			s0,0.12,0.01,0.34c0.01,0.21,0.01,0.52,0.03,0.88c0.02,0.37,0.03,0.79,0.05,1.25c0.03,0.46,0.05,0.94,0.08,1.43
			C6.28,70.71,6.31,71.19,6.34,71.65z"/>
		<path d="M8.43,75.19l2.78-0.15l2.78-0.17c0.93-0.06,1.85-0.12,2.78-0.18l0.04,0l0.03-0.01c0.2-0.08,0.37-0.17,0.54-0.28
			c0.17-0.11,0.33-0.24,0.47-0.39c0.15-0.15,0.26-0.33,0.36-0.53c0.04-0.1,0.09-0.2,0.1-0.31l0.03-0.16l0.01-0.16
			c0.01-0.11-0.01-0.22-0.01-0.33l0-0.04l0-0.02l0-0.01l0-0.02l0-0.01l-0.02-0.07c-0.01-0.04-0.02-0.1-0.04-0.15
			c-0.07-0.21-0.16-0.39-0.26-0.56c-0.2-0.34-0.44-0.65-0.68-0.94c-0.5-0.58-1.05-1.1-1.62-1.59c-0.57-0.49-1.18-0.93-1.81-1.34
			c-0.32-0.2-0.64-0.39-0.97-0.57c-0.33-0.18-0.68-0.34-1.02-0.48c-0.69-0.28-1.4-0.52-2.12-0.7c-0.72-0.18-1.45-0.33-2.18-0.4
			c-0.37-0.04-0.74-0.06-1.11-0.03c-0.18,0.02-0.37,0.04-0.55,0.1c-0.09,0.03-0.18,0.07-0.25,0.12c-0.08,0.06-0.14,0.13-0.17,0.22
			c0.07-0.18,0.26-0.26,0.43-0.3c0.18-0.04,0.36-0.05,0.54-0.06c0.36,0,0.73,0.03,1.09,0.09c0.72,0.11,1.44,0.29,2.14,0.5
			c0.7,0.22,1.39,0.47,2.05,0.77c0.34,0.15,0.66,0.32,0.97,0.5c0.32,0.18,0.63,0.38,0.93,0.58c0.61,0.41,1.18,0.87,1.74,1.35
			c0.55,0.48,1.08,1,1.54,1.56c0.23,0.28,0.45,0.57,0.62,0.88c0.09,0.15,0.16,0.31,0.21,0.46c0.01,0.03,0.02,0.07,0.03,0.12
			l0.01,0.07l0,0.05c0,0.08,0.02,0.16,0.01,0.24l-0.01,0.12l-0.03,0.11c-0.01,0.08-0.05,0.15-0.07,0.22
			c-0.07,0.14-0.16,0.27-0.27,0.39c-0.11,0.12-0.24,0.22-0.38,0.31c-0.13,0.08-0.28,0.16-0.42,0.21l-5.52,0.37L8.4,74.75l-1.39,0.09
			l-0.34,0.02c-0.06,0-0.11,0-0.17,0l-0.09,0c-0.01,0-0.04,0-0.06-0.01c-0.09-0.01-0.14-0.05-0.17-0.09
			c-0.01-0.02-0.02-0.05-0.03-0.08c-0.01-0.03,0-0.08,0-0.11l0.01-0.04l0-0.02L6.03,72.4l-0.15-2.13l-0.16-2.12l-0.08-1.06
			l-0.09-1.06l0.02,1.07l0.03,1.06l0.06,2.13l0.07,2.13l0.08,2.11c-0.01,0.07-0.02,0.13-0.01,0.21c0.01,0.08,0.04,0.17,0.09,0.25
			c0.05,0.08,0.12,0.14,0.19,0.18c0.07,0.04,0.15,0.06,0.22,0.08c0.04,0,0.06,0.01,0.11,0.01l0.09,0c0.06,0,0.12,0,0.18,0l0.36-0.01
			C7.5,75.23,7.96,75.21,8.43,75.19z"/>
		<path d="M15.15,71.73l-0.33,0.67l0.4,0.64L15.95,73l0.33-0.67l-0.4-0.64L15.15,71.73z M15.81,72.78l-0.48,0.03l-0.26-0.41
			l0.22-0.44l0.48-0.03l0.26,0.41L15.81,72.78z"/>
		<path d="M8.17,66.48c0.22,0.06,0.46,0.13,0.72,0.21c0.26,0.08,0.55,0.17,0.84,0.28c0.15,0.05,0.3,0.11,0.45,0.17
			c0.15,0.06,0.31,0.12,0.47,0.18c0.32,0.13,0.65,0.27,0.97,0.43c0.16,0.07,0.33,0.16,0.49,0.24c0.16,0.08,0.33,0.17,0.48,0.26
			c0.16,0.09,0.32,0.18,0.48,0.27c0.16,0.1,0.31,0.19,0.46,0.29c0.3,0.2,0.6,0.4,0.87,0.61c0.14,0.1,0.27,0.21,0.4,0.31
			c0.13,0.1,0.26,0.2,0.38,0.3c0.12,0.1,0.24,0.2,0.35,0.3c0.11,0.1,0.22,0.2,0.31,0.3c0.2,0.19,0.37,0.38,0.52,0.55
			c0.14,0.17,0.26,0.33,0.35,0.47c0.09,0.14,0.15,0.25,0.19,0.33c0.04,0.08,0.05,0.12,0.05,0.12s-0.04-0.19-0.21-0.47
			c-0.08-0.14-0.19-0.31-0.33-0.49c-0.14-0.18-0.3-0.38-0.5-0.58c-0.1-0.1-0.2-0.21-0.31-0.31c-0.11-0.11-0.22-0.21-0.34-0.32
			c-0.12-0.11-0.24-0.22-0.37-0.32c-0.13-0.11-0.26-0.21-0.4-0.32c-0.28-0.21-0.57-0.41-0.87-0.62c-0.15-0.1-0.31-0.2-0.47-0.3
			c-0.16-0.1-0.32-0.19-0.48-0.28c-0.16-0.09-0.33-0.17-0.49-0.26c-0.16-0.08-0.33-0.17-0.5-0.24c-0.33-0.16-0.66-0.29-0.98-0.42
			c-0.16-0.06-0.32-0.12-0.48-0.18c-0.16-0.05-0.31-0.1-0.46-0.15c-0.3-0.09-0.59-0.18-0.86-0.25c-0.53-0.14-0.98-0.23-1.3-0.29
			c-0.32-0.06-0.5-0.08-0.5-0.08s0.18,0.03,0.49,0.11C7.76,66.37,7.95,66.42,8.17,66.48z"/>
		<path d="M15.31,68.15l4.24-1.47l0.91-4.1c-1.01,0.34-1.95,0.65-2.82,0.94c-2.9,0.95-4.83,1.58-4.83,1.58s1.92-0.67,4.8-1.67
			c0.88-0.3,1.85-0.64,2.88-0.99l0.17-0.78L9.78,65.35c0,0,1.37,0.15,3.34,1.39C15.09,67.98,15.31,68.15,15.31,68.15z"/>
		<path d="M46.56,68.38c0,0-0.43,0.01-1.18,0.03c-0.75,0.03-1.82,0.05-3.1,0.1c-1.28,0.05-2.78,0.1-4.39,0.18
			c-1.6,0.08-3.32,0.16-5.03,0.24c-1.71,0.1-3.42,0.19-5.02,0.28c-1.6,0.09-3.1,0.2-4.38,0.28c-1.28,0.08-2.35,0.17-3.1,0.22
			c-0.47,0.04-0.81,0.06-1,0.08l-0.02-0.03l-1.99,0.1c0,0,1.29,1.04,1.57,2.57c0.28,1.54-0.93,2.09-0.93,2.09l2.22-0.13
			c0.75-0.03,1.78-0.06,3.02-0.12c1.29-0.06,2.79-0.12,4.4-0.21c1.61-0.09,3.32-0.18,5.04-0.28c1.71-0.11,3.43-0.22,5.04-0.32
			c1.61-0.1,3.11-0.22,4.39-0.31c1.29-0.09,2.36-0.19,3.1-0.25c0.06-0.01,0.12-0.01,0.18-0.02l0.01,0.02l1.83-0.11l-0.26-4.2
			l-0.29-0.19l-1.47,0.07c0.06,0,0.12-0.01,0.18-0.01C46.14,68.42,46.56,68.38,46.56,68.38z M29.63,69.42l2.68,4.05
			c-1.17,0.07-2.33,0.15-3.46,0.22l-2.72-4.12c0.56-0.02,1.14-0.05,1.74-0.08C28.44,69.48,29.03,69.45,29.63,69.42z M23.24,74.09
			c-0.34,0.02-0.67,0.05-0.98,0.07l-2.88-4.36c0.19,0,0.53-0.01,1-0.02c0.64-0.02,1.51-0.04,2.54-0.08l2.78,4.21
			C24.82,73.97,23.99,74.04,23.24,74.09z M37.71,73.18c-0.76,0.04-1.55,0.09-2.34,0.13l-2.67-4.03c0.06,0,0.13-0.01,0.19-0.01
			c1.11-0.06,2.21-0.13,3.29-0.19l2.67,4.04C38.47,73.14,38.09,73.16,37.71,73.18z M46.47,68.92l0.07,0l0.01,0.08
			c0.04,0.51,0.07,1.02,0.09,1.54c0.01,0.26,0.01,0.51,0.02,0.77c0.01,0.26,0.01,0.51,0,0.77c-0.04-0.25-0.07-0.51-0.1-0.76
			c-0.02-0.26-0.05-0.51-0.07-0.77c-0.04-0.49-0.07-0.97-0.1-1.46c-0.26,0-0.52-0.01-0.79-0.01c-0.14,0-0.29-0.01-0.43-0.02
			c-0.14-0.01-0.29-0.01-0.43-0.02c0.14-0.02,0.29-0.03,0.43-0.04c0.14-0.01,0.29-0.02,0.43-0.03
			C45.89,68.94,46.18,68.93,46.47,68.92z M45.36,72.84c-0.05,0-0.1,0-0.15,0c-0.75,0.03-1.82,0.06-3.11,0.12
			c-0.08,0-0.17,0.01-0.26,0.01l-2.69-4.07c1.13-0.07,2.2-0.15,3.14-0.21c0.11-0.01,0.21-0.01,0.32-0.02L45.36,72.84z"/>
		<path d="M45.4,57.76l-1.35-4.01l-1.47,0.5l-0.19,0.84c0.79-0.26,1.24-0.41,1.24-0.41s-0.45,0.16-1.25,0.44L41.5,59.1l-3.32,1.15
			l0.88-3.98c-0.07,0.03-0.15,0.05-0.23,0.08c-0.81,0.28-1.71,0.59-2.65,0.91l-0.88,3.98l-9.47,3.27l0.89-4.03
			c-0.99,0.33-1.98,0.67-2.94,0.99l-0.9,4.06l0.23-0.08l-7.8,2.69l29.15-9.6L45.4,57.76z M42.35,58.86
			c-0.15,0.04-0.27,0.07-0.36,0.1c-0.09,0.02-0.14,0.03-0.14,0.03s0.05-0.02,0.13-0.06c0.08-0.04,0.2-0.1,0.34-0.16
			c0.28-0.12,0.67-0.28,1.05-0.42c0.39-0.14,0.78-0.26,1.08-0.35c0.15-0.04,0.27-0.07,0.36-0.1c0.09-0.02,0.14-0.03,0.14-0.03
			s-0.05,0.02-0.13,0.06c-0.08,0.04-0.2,0.1-0.34,0.16c-0.28,0.12-0.67,0.28-1.05,0.42C43.04,58.65,42.65,58.77,42.35,58.86z"/>
	</g>
</g>
</svg>
