<svg version="1.2" baseProfile="tiny-ps" xmlns="http://www.w3.org/2000/svg" viewBox="0 0 129 121" width="129" height="121">
	<title>casting-svg</title>
	<style>
		tspan { white-space:pre }
		.shp0 { fill: #93d8d0 } 
		.shp1 { fill: #231f20 } 
		.shp2 { fill: #f42a68 } 
		.shp3 { fill: #2be0c1 } 
		.shp4 { fill: #ffffff } 
	</style>
	<g id="Layer">
		<g id="Layer">
			<g id="Layer">
				<path id="Layer" class="shp0" d="M118.76 5.06L107.88 2.53L97 0C97 0 92.65 17.46 102.59 25.28C114.96 22.65 118.76 5.06 118.76 5.06Z" />
				<g id="Layer">
					<path id="Layer" class="shp1" d="M111.27 10.24C111.2 10.24 111.14 10.24 111.07 10.23C111.01 10.23 110.94 10.22 110.88 10.22C110.81 10.21 110.75 10.2 110.68 10.19C110.62 10.18 110.55 10.16 110.49 10.15C110.27 10.1 110.06 10.03 109.86 9.94C109.66 9.84 109.46 9.73 109.28 9.6C109.1 9.47 108.93 9.33 108.78 9.16C108.63 9 108.49 8.82 108.38 8.63C108.31 8.53 108.28 8.41 108.31 8.29C108.33 8.17 108.41 8.07 108.51 8.01C108.61 7.94 108.74 7.92 108.85 7.95C108.97 7.98 109.07 8.06 109.13 8.16C109.31 8.44 109.53 8.69 109.8 8.88C110.07 9.07 110.37 9.21 110.69 9.28C111.01 9.35 111.35 9.36 111.67 9.31C112 9.26 112.31 9.14 112.59 8.96C112.69 8.91 112.81 8.89 112.92 8.92C113.03 8.95 113.12 9.02 113.19 9.12C113.25 9.21 113.27 9.33 113.24 9.44C113.22 9.56 113.15 9.65 113.06 9.72C112.92 9.8 112.78 9.88 112.64 9.94C112.5 10.01 112.35 10.06 112.2 10.1C112.05 10.15 111.89 10.18 111.74 10.2C111.58 10.23 111.43 10.24 111.27 10.24Z" />
				</g>
				<g id="Layer">
					<path id="Layer" class="shp1" d="M102.78 8.26C102.72 8.26 102.65 8.26 102.59 8.26C102.52 8.25 102.46 8.25 102.39 8.24C102.33 8.23 102.26 8.22 102.2 8.21C102.14 8.2 102.07 8.19 102.01 8.17C101.79 8.12 101.58 8.05 101.38 7.96C101.17 7.87 100.98 7.76 100.8 7.63C100.62 7.5 100.45 7.35 100.3 7.19C100.15 7.03 100.01 6.85 99.89 6.66C99.83 6.56 99.8 6.44 99.83 6.32C99.85 6.2 99.92 6.1 100.03 6.03C100.13 5.97 100.25 5.95 100.37 5.98C100.49 6.01 100.59 6.08 100.65 6.19C100.82 6.47 101.05 6.71 101.32 6.9C101.59 7.09 101.89 7.23 102.21 7.31C102.53 7.38 102.86 7.39 103.19 7.34C103.51 7.28 103.82 7.16 104.1 6.99C104.2 6.93 104.32 6.92 104.43 6.95C104.55 6.97 104.64 7.04 104.7 7.14C104.76 7.24 104.78 7.36 104.76 7.47C104.74 7.58 104.67 7.68 104.57 7.74C104.44 7.83 104.3 7.9 104.16 7.97C104.01 8.03 103.87 8.09 103.72 8.13C103.56 8.17 103.41 8.21 103.26 8.23C103.1 8.25 102.94 8.26 102.79 8.26L102.78 8.26Z" />
				</g>
				<g id="Layer">
					<path id="Layer" class="shp1" d="M109.26 17.34C109.23 17.34 109.2 17.34 109.16 17.33C109.13 17.32 109.1 17.31 109.07 17.3C109.04 17.28 109.01 17.26 108.98 17.24C108.96 17.22 108.93 17.2 108.91 17.17C108.42 16.57 107.83 16.06 107.17 15.65C106.51 15.24 105.79 14.94 105.04 14.76C104.28 14.59 103.5 14.54 102.73 14.61C101.96 14.69 101.2 14.89 100.5 15.21C100.39 15.26 100.27 15.27 100.16 15.23C100.05 15.2 99.95 15.11 99.9 15.01C99.85 14.9 99.84 14.78 99.88 14.67C99.92 14.56 100 14.47 100.1 14.41C100.9 14.05 101.75 13.81 102.63 13.73C103.5 13.64 104.38 13.69 105.24 13.89C106.09 14.09 106.91 14.43 107.65 14.9C108.4 15.36 109.06 15.94 109.62 16.62C109.67 16.69 109.7 16.77 109.71 16.85C109.72 16.93 109.7 17.02 109.66 17.09C109.63 17.17 109.57 17.23 109.5 17.27C109.43 17.32 109.35 17.34 109.26 17.34L109.26 17.34Z" />
				</g>
			</g>
			<g id="Layer">
				<path id="Layer" class="shp2" d="M0 19.52L0.3 19.33L62.41 116.64L62.11 116.84L0 19.52Z" />
			</g>
			<g id="Layer">
				<path id="Layer" class="shp2" d="M0.15 19.21L119.2 19.21L119.2 19.57L0.15 19.57L0.15 19.21Z" />
			</g>
			<g id="Layer">
				<path id="Layer" class="shp3" d="M62.14 116.61L119.05 19.27L119.36 19.45L62.44 116.79L62.14 116.61Z" />
			</g>
			<g id="Layer">
				<g id="Layer">
					<path id="Layer" fill-rule="evenodd" class="shp0" d="M107.38 48.74C107.46 48.79 107.54 48.85 107.61 48.92C107.68 48.99 107.74 49.07 107.79 49.15C107.84 49.24 107.88 49.33 107.9 49.43C107.93 49.52 107.94 49.62 107.94 49.72L107.94 84.27C107.94 84.47 107.89 84.67 107.79 84.84C107.69 85.01 107.55 85.15 107.38 85.25C107.2 85.35 107.01 85.4 106.81 85.4C106.61 85.4 106.41 85.35 106.24 85.25L91.32 76.64L91.32 82.18C91.32 83.38 91.08 84.58 90.62 85.69C90.16 86.8 89.48 87.81 88.63 88.67C87.78 89.52 86.77 90.19 85.66 90.65C84.54 91.12 83.35 91.35 82.15 91.36L25.13 91.36C23.92 91.35 22.73 91.12 21.62 90.65C20.5 90.19 19.49 89.52 18.64 88.67C17.79 87.81 17.11 86.8 16.65 85.69C16.19 84.58 15.95 83.38 15.95 82.18L15.95 81.68L9.36 81.68C9.21 81.68 9.06 81.65 8.93 81.59C8.79 81.54 8.66 81.45 8.56 81.35C8.45 81.24 8.37 81.12 8.31 80.98C8.26 80.84 8.23 80.69 8.23 80.55L8.23 53.45C8.23 53.3 8.26 53.15 8.31 53.01C8.37 52.87 8.45 52.75 8.56 52.64C8.66 52.54 8.79 52.46 8.93 52.4C9.06 52.34 9.21 52.31 9.36 52.31L15.95 52.31L15.95 51.81C15.95 50.61 16.19 49.41 16.65 48.3C17.11 47.19 17.79 46.18 18.64 45.33C19.49 44.47 20.5 43.8 21.62 43.34C22.73 42.88 23.92 42.64 25.13 42.64L33.46 42.64C28.83 40.3 26.41 35.09 27.61 30.04C28.81 25 33.32 21.44 38.5 21.44C43.69 21.44 48.2 25 49.4 30.04C50.6 35.09 48.18 40.3 43.55 42.64L58.89 42.64C52.19 39.81 48.4 32.64 49.84 25.51C51.29 18.37 57.56 13.24 64.84 13.24C72.12 13.24 78.39 18.37 79.84 25.51C81.28 32.64 77.49 39.81 70.79 42.64L82.15 42.64C83.35 42.64 84.54 42.88 85.66 43.34C86.77 43.8 87.78 44.47 88.63 45.33C89.48 46.18 90.16 47.19 90.62 48.3C91.08 49.41 91.32 50.61 91.32 51.81L91.32 57.35L106.24 48.74C106.33 48.69 106.42 48.65 106.51 48.63C106.61 48.6 106.71 48.59 106.81 48.59C106.91 48.59 107.01 48.6 107.1 48.63C107.2 48.65 107.29 48.69 107.38 48.74ZM76.89 54.58C77.19 54.58 77.48 54.46 77.69 54.25C77.91 54.03 78.03 53.75 78.03 53.44C78.03 53.14 77.91 52.86 77.69 52.64C77.48 52.43 77.19 52.31 76.89 52.31L69.92 52.31C69.62 52.31 69.33 52.43 69.12 52.64C68.91 52.86 68.79 53.14 68.79 53.44C68.79 53.75 68.91 54.03 69.12 54.25C69.33 54.46 69.62 54.58 69.92 54.58L76.89 54.58L76.89 54.58Z" />
				</g>
				<g id="Layer">
					<path id="Layer" class="shp2" d="M111.17 48.74C111.09 48.69 110.99 48.65 110.9 48.63C110.8 48.6 110.7 48.59 110.6 48.59C110.51 48.59 110.41 48.6 110.31 48.63C110.22 48.65 110.12 48.69 110.04 48.74L95.12 57.35L95.12 51.81C95.12 50.61 94.88 49.41 94.42 48.3C93.96 47.19 93.28 46.18 92.43 45.33C91.58 44.47 90.57 43.8 89.45 43.34C88.34 42.88 87.15 42.64 85.94 42.64L74.58 42.64C81.29 39.81 85.08 32.64 83.63 25.51C82.19 18.37 75.92 13.24 68.64 13.24C61.36 13.24 55.08 18.37 53.64 25.51C52.2 32.64 55.98 39.81 62.69 42.64L47.34 42.64C51.97 40.3 54.4 35.09 53.19 30.04C51.99 25 47.49 21.44 42.3 21.44C37.11 21.44 32.6 25 31.4 30.04C30.2 35.09 32.62 40.3 37.25 42.64L28.92 42.64C27.72 42.64 26.53 42.88 25.41 43.34C24.3 43.8 23.29 44.47 22.44 45.33C21.59 46.18 20.91 47.19 20.45 48.3C19.99 49.41 19.75 50.61 19.75 51.81L19.75 52.31L13.16 52.31C13.01 52.31 12.86 52.34 12.72 52.4C12.59 52.46 12.46 52.54 12.36 52.64C12.25 52.75 12.17 52.87 12.11 53.01C12.05 53.15 12.02 53.3 12.02 53.45L12.02 80.55C12.02 80.69 12.05 80.84 12.11 80.98C12.17 81.12 12.25 81.24 12.36 81.35C12.46 81.45 12.59 81.54 12.72 81.59C12.86 81.65 13.01 81.68 13.16 81.68L19.75 81.68L19.75 82.18C19.75 83.38 19.99 84.58 20.45 85.69C20.91 86.8 21.59 87.81 22.44 88.67C23.29 89.52 24.3 90.19 25.41 90.65C26.53 91.12 27.72 91.35 28.92 91.36L85.94 91.36C87.15 91.35 88.34 91.12 89.45 90.65C90.57 90.19 91.58 89.52 92.43 88.67C93.28 87.81 93.96 86.8 94.42 85.69C94.88 84.58 95.12 83.38 95.12 82.18L95.12 76.64L110.04 85.25C110.21 85.35 110.4 85.4 110.6 85.4C110.8 85.4 111 85.35 111.17 85.25C111.34 85.15 111.48 85.01 111.58 84.84C111.68 84.66 111.74 84.47 111.74 84.27L111.74 49.72C111.74 49.62 111.72 49.52 111.7 49.43C111.67 49.33 111.64 49.24 111.59 49.15C111.54 49.07 111.48 48.99 111.41 48.92C111.34 48.85 111.26 48.79 111.17 48.74L111.17 48.74Z" />
				</g>
				<g id="Layer">
					<g id="Layer">
						<path id="Layer" class="shp1" d="M52.41 37.45C52.92 36.4 53.25 35.27 53.4 34.11C53.56 32.95 53.53 31.78 53.32 30.62C53.11 29.47 52.72 28.36 52.17 27.33C51.62 26.3 50.91 25.36 50.06 24.55C49.77 25.65 49.6 26.77 49.55 27.9C49.51 29.02 49.59 30.16 49.79 31.27C49.99 32.38 50.32 33.47 50.76 34.51C51.2 35.55 51.75 36.54 52.41 37.45L52.41 37.45Z" />
					</g>
					<path id="Layer" class="shp1" d="M95.12 57.35L95.12 55.16L91.32 57.35L91.32 51.81C91.32 50.6 91.08 49.41 90.62 48.3C90.16 47.18 89.48 46.17 88.63 45.32C87.78 44.47 86.77 43.79 85.65 43.33C84.54 42.87 83.35 42.63 82.14 42.63L70.79 42.63C73.89 41.32 76.48 39.03 78.15 36.1C79.82 33.17 80.47 29.77 80.01 26.43C79.55 23.09 78 20 75.6 17.63C73.2 15.27 70.08 13.76 66.74 13.34C63.39 13.76 60.28 15.27 57.88 17.63C55.48 20 53.93 23.09 53.47 26.43C53.01 29.77 53.66 33.17 55.33 36.1C57 39.03 59.59 41.32 62.69 42.63L43.55 42.63C45.65 41.57 47.37 39.87 48.45 37.78C49.54 35.68 49.93 33.3 49.58 30.97C49.23 28.64 48.16 26.48 46.51 24.79C44.86 23.1 42.72 21.98 40.4 21.58C38.08 21.98 35.94 23.1 34.29 24.79C32.64 26.48 31.57 28.64 31.22 30.97C30.87 33.3 31.27 35.68 32.35 37.78C33.43 39.87 35.15 41.57 37.25 42.63L28.92 42.63C27.72 42.63 26.53 42.87 25.41 43.33C24.3 43.79 23.29 44.47 22.44 45.32C21.59 46.17 20.91 47.18 20.45 48.3C19.99 49.41 19.75 50.6 19.75 51.81L19.75 52.31L13.16 52.31C13.01 52.31 12.86 52.34 12.72 52.39C12.59 52.45 12.46 52.53 12.36 52.64C12.25 52.74 12.17 52.87 12.11 53.01C12.05 53.14 12.02 53.29 12.02 53.44L12.02 80.54C12.02 80.69 12.05 80.84 12.11 80.97C12.17 81.11 12.25 81.24 12.36 81.34C12.46 81.45 12.59 81.53 12.72 81.59C12.86 81.64 13.01 81.67 13.16 81.67L19.75 81.67L19.75 82.17C19.75 83.38 19.99 84.57 20.45 85.68C20.91 86.8 21.59 87.81 22.44 88.66C23.29 89.51 24.3 90.19 25.41 90.65C26.53 91.11 27.72 91.35 28.92 91.35L82.15 91.35C83.35 91.35 84.55 91.11 85.66 90.65C86.77 90.19 87.78 89.51 88.63 88.66C89.49 87.81 90.16 86.8 90.62 85.68C91.08 84.57 91.32 83.38 91.32 82.17L91.32 76.63L95.12 78.82L95.12 76.63L107.95 84.03L107.95 49.94L95.12 57.35Z" />
				</g>
			</g>
			<g id="Layer">
				<g id="Layer">
					<path id="Layer" class="shp1" d="M41.62 109.69L52.6 98.74L53.15 101.96L50 108.26L41.62 109.69Z" />
				</g>
				<g id="Layer">
					<path id="Layer" class="shp1" d="M79.9 103.17L65.91 96.47L66.46 99.7L71.51 104.6L79.9 103.17Z" />
				</g>
				<g id="Layer">
					<path id="Layer" class="shp1" d="M79.43 103.25L63.56 105.95L62.42 106.14L59.21 106.69L58.69 106.78L42.21 109.59C42.02 109.62 41.85 109.69 41.69 109.79C41.53 109.89 41.39 110.02 41.28 110.17C41.17 110.33 41.09 110.5 41.05 110.69C41.01 110.87 41 111.06 41.03 111.25L42.19 118.02C42.26 118.48 42.43 118.92 42.68 119.31C42.93 119.71 43.25 120.05 43.64 120.32C44.02 120.59 44.45 120.79 44.9 120.89C45.36 120.99 45.83 121.01 46.29 120.93L57.69 118.99C58.15 118.91 58.59 118.74 58.99 118.49C59.39 118.24 59.73 117.92 60 117.53C60.27 117.15 60.46 116.72 60.57 116.27C60.67 115.81 60.68 115.34 60.6 114.88L59.88 110.6L63.09 110.06L63.81 114.33C63.89 114.79 64.06 115.23 64.31 115.63C64.56 116.02 64.88 116.37 65.26 116.64C65.64 116.91 66.08 117.1 66.53 117.2C66.99 117.31 67.46 117.32 67.92 117.24L79.32 115.3C79.78 115.22 80.22 115.05 80.62 114.8C81.01 114.55 81.36 114.23 81.63 113.85C81.9 113.47 82.09 113.04 82.19 112.58C82.3 112.12 82.31 111.65 82.23 111.19L81.08 104.42C81.05 104.24 80.98 104.06 80.88 103.9C80.78 103.74 80.65 103.6 80.5 103.49C80.34 103.39 80.17 103.31 79.99 103.26C79.8 103.22 79.61 103.22 79.43 103.25Z" />
				</g>
				<g id="Layer">
					<path id="Layer" class="shp0" d="M57.24 109.47L57.99 113.87C58.05 114.2 58.04 114.55 57.96 114.88C57.89 115.21 57.75 115.52 57.55 115.8C57.36 116.07 57.11 116.31 56.82 116.49C56.53 116.67 56.21 116.79 55.88 116.85L47.3 118.31C46.97 118.37 46.62 118.36 46.29 118.28C45.96 118.21 45.65 118.07 45.37 117.87C45.1 117.68 44.86 117.43 44.68 117.14C44.5 116.85 44.38 116.53 44.32 116.2L43.57 111.8L57.24 109.47Z" />
				</g>
				<g id="Layer">
					<path id="Layer" class="shp2" d="M78.87 105.79L79.62 110.18C79.68 110.52 79.67 110.86 79.6 111.19C79.52 111.52 79.38 111.83 79.18 112.11C78.99 112.39 78.74 112.62 78.45 112.8C78.17 112.98 77.85 113.11 77.51 113.16L68.93 114.62C68.6 114.68 68.26 114.67 67.93 114.6C67.6 114.52 67.28 114.38 67.01 114.19C66.73 113.99 66.5 113.74 66.32 113.45C66.13 113.17 66.01 112.85 65.96 112.51L65.21 108.11L78.87 105.79Z" />
				</g>
			</g>
			<g id="Layer">
				<path id="Layer" class="shp3" d="M58.69 53.36L119.14 19.21L119.32 19.52L58.86 53.67L58.69 53.36Z" />
			</g>
			<g id="Layer">
				<path id="Layer" class="shp2" d="M128.45 24.17L119.79 17.11L111.13 10.05C111.13 10.05 99.55 23.82 105.04 35.22C117.31 38.29 128.45 24.17 128.45 24.17Z" />
				<g id="Layer">
					<path id="Layer" class="shp4" d="M113.93 21.02C113.88 21.02 113.83 21.01 113.77 20.99C113.72 20.97 113.68 20.94 113.64 20.9C113.6 20.87 113.56 20.82 113.54 20.77C113.51 20.73 113.5 20.67 113.49 20.62C113.46 20.29 113.36 19.97 113.2 19.68C113.05 19.39 112.84 19.14 112.58 18.93C112.33 18.72 112.03 18.56 111.72 18.47C111.4 18.38 111.07 18.34 110.74 18.38C110.62 18.39 110.5 18.36 110.41 18.29C110.31 18.21 110.25 18.1 110.24 17.98C110.23 17.86 110.26 17.74 110.34 17.65C110.42 17.56 110.53 17.5 110.65 17.49C111.09 17.45 111.54 17.49 111.97 17.62C112.4 17.75 112.8 17.96 113.14 18.24C113.49 18.52 113.78 18.87 113.99 19.26C114.2 19.65 114.33 20.08 114.38 20.53C114.38 20.59 114.38 20.65 114.36 20.7C114.34 20.76 114.32 20.81 114.28 20.86C114.24 20.9 114.2 20.94 114.14 20.97C114.09 20.99 114.04 21.01 113.98 21.02L113.93 21.02Z" />
				</g>
				<g id="Layer">
					<path id="Layer" class="shp4" d="M120.69 26.52C120.63 26.52 120.58 26.51 120.53 26.49C120.48 26.47 120.43 26.44 120.39 26.4C120.35 26.37 120.31 26.32 120.29 26.27C120.26 26.23 120.25 26.17 120.24 26.12C120.21 25.79 120.11 25.47 119.96 25.18C119.8 24.89 119.59 24.64 119.33 24.43C119.08 24.22 118.78 24.06 118.47 23.97C118.15 23.88 117.82 23.84 117.49 23.88C117.37 23.89 117.25 23.86 117.16 23.79C117.06 23.71 117 23.6 116.99 23.48C116.98 23.36 117.02 23.24 117.09 23.15C117.17 23.06 117.28 23 117.4 22.99C117.85 22.95 118.3 22.99 118.72 23.12C119.15 23.25 119.55 23.46 119.89 23.74C120.24 24.02 120.53 24.37 120.74 24.76C120.95 25.15 121.08 25.58 121.13 26.03C121.13 26.09 121.13 26.15 121.11 26.2C121.1 26.26 121.07 26.31 121.03 26.35C120.99 26.4 120.95 26.44 120.9 26.47C120.84 26.49 120.79 26.51 120.73 26.51L120.69 26.52Z" />
				</g>
				<g id="Layer">
					<path id="Layer" class="shp4" d="M115.68 29.85C114.8 29.83 113.94 29.66 113.12 29.35C112.3 29.05 111.53 28.61 110.86 28.05C110.18 27.5 109.6 26.84 109.13 26.09C108.67 25.35 108.33 24.54 108.14 23.68C108.12 23.57 108.14 23.45 108.21 23.36C108.27 23.26 108.37 23.2 108.49 23.17C108.6 23.15 108.72 23.17 108.82 23.23C108.91 23.3 108.98 23.39 109.01 23.51C109.19 24.26 109.49 24.98 109.9 25.63C110.31 26.29 110.82 26.87 111.42 27.36C112.02 27.85 112.69 28.24 113.42 28.51C114.14 28.78 114.9 28.94 115.68 28.96L115.71 28.96C115.82 28.97 115.93 29.02 116.01 29.1C116.09 29.18 116.13 29.29 116.13 29.41C116.13 29.52 116.09 29.63 116.01 29.71C115.93 29.8 115.82 29.85 115.71 29.85L115.68 29.85Z" />
				</g>
			</g>
			<g id="Layer">
				<path id="Layer" class="shp2" d="M58.6 53.53L58.95 53.51L62.47 116.7L62.12 116.72L58.6 53.53Z" />
			</g>
			<g id="Layer">
				<path id="Layer" class="shp2" d="M0.06 19.58L0.24 19.27L58.83 53.38L58.66 53.69L0.06 19.58Z" />
			</g>
		</g>
	</g>
</svg>