<svg xmlns="http://www.w3.org/2000/svg" width="152.729" height="199.328" viewBox="0 0 152.729 199.328"><defs><style>.a{fill:#93d8d0;}.b{fill:#231f20;}.c{fill:#f42a68;}.d{fill:#2be0c1;}.e,.f{fill:#fff;}.f,.g{font-size:45px;font-family:SegoeUI, Segoe UI;letter-spacing:0.003em;}.g{fill:#0b0b0b;}</style></defs><g transform="translate(-28.271 -236.672)"><g transform="translate(-60.717 150.146)"><g transform="translate(185.04 86.526)"><path class="a" d="M327.681,91.589,316.8,89.057l-10.882-2.531s-4.35,17.457,5.59,25.278C323.878,109.174,327.681,91.589,327.681,91.589Z" transform="translate(-304.969 -86.526)"/><g transform="translate(12.257 7.954)"><path class="b" d="M335.489,106.694a3.423,3.423,0,0,1-.777-.09,3.375,3.375,0,0,1-2.115-1.514.445.445,0,1,1,.755-.47,2.509,2.509,0,0,0,3.456.8.445.445,0,0,1,.47.755A3.378,3.378,0,0,1,335.489,106.694Z" transform="translate(-332.53 -104.41)"/></g><g transform="translate(3.774 5.98)"><path class="b" d="M316.415,102.256a3.423,3.423,0,0,1-.777-.089,3.379,3.379,0,0,1-2.115-1.514.445.445,0,1,1,.755-.47,2.509,2.509,0,0,0,3.456.8.445.445,0,0,1,.47.755A3.378,3.378,0,0,1,316.415,102.256Z" transform="translate(-313.456 -99.973)"/></g><g transform="translate(3.803 13.677)"><path class="b" d="M322.93,120.947a.443.443,0,0,1-.353-.174,7.094,7.094,0,0,0-8.413-1.957.445.445,0,1,1-.395-.8,7.98,7.98,0,0,1,9.514,2.213.444.444,0,0,1-.353.715Z" transform="translate(-313.521 -117.281)"/></g></g><g transform="translate(88.988 105.854)"><rect class="c" width="0.356" height="115.439" transform="matrix(0.843, -0.538, 0.538, 0.843, 0, 0.192)"/></g><g transform="translate(89.138 105.74)"><rect class="c" width="119.047" height="0.356" transform="translate(0)"/></g><g transform="translate(151.124 105.801)"><rect class="d" width="112.756" height="0.356" transform="translate(0 97.338) rotate(-59.685)"/></g><g transform="translate(97.214 99.758)"><g transform="translate(0)"><path class="a" d="M206.633,151.786a1.136,1.136,0,0,0-1.134,0L190.581,160.4v-5.541a9.186,9.186,0,0,0-9.176-9.176H170.044a15.3,15.3,0,1,0-11.891,0H142.806a11.2,11.2,0,1,0-10.09,0h-8.331a9.186,9.186,0,0,0-9.176,9.176v.5h-6.59a1.134,1.134,0,0,0-1.134,1.134v27.1a1.134,1.134,0,0,0,1.134,1.134h6.59v.5a9.186,9.186,0,0,0,9.176,9.176h57.02a9.186,9.186,0,0,0,9.176-9.176v-5.541L205.5,188.3a1.134,1.134,0,0,0,1.7-.982V152.768A1.135,1.135,0,0,0,206.633,151.786Zm-30.483,5.84h-6.972a1.134,1.134,0,0,1,0-2.269h6.972a1.134,1.134,0,0,1,0,2.269Z" transform="translate(-107.484 -116.279)"/></g><g transform="translate(3.797)"><path class="c" d="M215.171,151.786a1.136,1.136,0,0,0-1.134,0L199.118,160.4v-5.541a9.186,9.186,0,0,0-9.176-9.176H178.581a15.3,15.3,0,1,0-11.891,0H151.343a11.2,11.2,0,1,0-10.09,0h-8.331a9.186,9.186,0,0,0-9.176,9.176v.5h-6.59a1.134,1.134,0,0,0-1.134,1.134v27.1a1.134,1.134,0,0,0,1.134,1.134h6.59v.5a9.186,9.186,0,0,0,9.176,9.176h57.02a9.186,9.186,0,0,0,9.176-9.176v-5.541l14.918,8.613a1.135,1.135,0,0,0,1.7-.982V152.768A1.135,1.135,0,0,0,215.171,151.786Z" transform="translate(-116.022 -116.279)"/></g><g transform="translate(3.797 0.117)"><g transform="translate(37.517 11.204)"><path class="b" d="M203.253,154.638a11.206,11.206,0,0,0-2.348-12.9,15.319,15.319,0,0,0,2.348,12.9Z" transform="translate(-200.381 -141.737)"/></g><path class="b" d="M199.118,160.545v-2.192l-3.8,2.192V155a9.186,9.186,0,0,0-9.176-9.176H174.785a15.3,15.3,0,0,0-4.047-29.286,15.3,15.3,0,0,0-4.047,29.286H147.547a11.205,11.205,0,0,0-3.147-21.047,11.205,11.205,0,0,0-3.147,21.047h-8.331A9.186,9.186,0,0,0,123.747,155v.5h-6.59a1.134,1.134,0,0,0-1.134,1.134v27.1a1.134,1.134,0,0,0,1.134,1.134h6.59v.5a9.186,9.186,0,0,0,9.176,9.176h53.224a9.186,9.186,0,0,0,9.176-9.176v-5.541l3.8,2.192v-2.192l12.823,7.4v-34.09Z" transform="translate(-116.022 -116.543)"/></g></g><g transform="translate(130 183.001)"><g transform="translate(0.604 2.266)"><path class="b" d="M182.566,319.5l10.985-10.946.549,3.221-3.147,6.3Z" transform="translate(-182.566 -308.554)"/></g><g transform="translate(24.894)"><path class="b" d="M251.174,310.151l-13.989-6.692.549,3.221,5.054,4.9Z" transform="translate(-237.184 -303.459)"/></g><g transform="translate(0 6.751)"><path class="b" d="M219.623,318.66l-15.865,2.7-1.139.194-3.209.547-.525.089L182.406,325a1.44,1.44,0,0,0-1.178,1.661l1.153,6.77a3.56,3.56,0,0,0,4.107,2.911l11.4-1.943a3.56,3.56,0,0,0,2.912-4.107l-.728-4.274,3.209-.547.728,4.274a3.559,3.559,0,0,0,4.107,2.911l11.4-1.943a3.559,3.559,0,0,0,2.912-4.107l-1.153-6.769A1.44,1.44,0,0,0,219.623,318.66Z" transform="translate(-181.208 -318.64)"/></g><g transform="translate(2.561 12.997)"><path class="a" d="M0,0H4.461A2.582,2.582,0,0,1,7.043,2.582v8.7a2.582,2.582,0,0,1-2.582,2.582H0a0,0,0,0,1,0,0V0A0,0,0,0,1,0,0Z" transform="matrix(0.168, 0.986, -0.986, 0.168, 13.669, 0)"/></g><g transform="translate(24.193 9.312)"><path class="c" d="M0,0H4.461A2.582,2.582,0,0,1,7.043,2.582v8.7a2.582,2.582,0,0,1-2.582,2.582H0a0,0,0,0,1,0,0V0A0,0,0,0,1,0,0Z" transform="translate(13.669 0) rotate(80.334)"/></g></g><g transform="translate(147.677 105.73)"><rect class="d" width="69.406" height="0.356" transform="matrix(0.871, -0.492, 0.492, 0.871, 0, 34.157)"/></g><g transform="translate(192.549 96.581)"><path class="c" d="M346.743,123.249l-8.662-7.056-8.662-7.057s-11.58,13.769-6.088,25.163C335.6,137.374,346.743,123.249,346.743,123.249Z" transform="translate(-321.853 -109.136)"/><g transform="translate(6.69 7.42)"><path class="e" d="M340.578,129.363a.445.445,0,0,1-.442-.4,2.509,2.509,0,0,0-2.751-2.241.445.445,0,1,1-.09-.885,3.4,3.4,0,0,1,3.726,3.035.445.445,0,0,1-.4.488Z" transform="translate(-336.895 -125.819)"/></g><g transform="translate(13.442 12.92)"><path class="e" d="M355.761,141.732a.445.445,0,0,1-.442-.4,2.509,2.509,0,0,0-2.751-2.241.445.445,0,1,1-.09-.885,3.4,3.4,0,0,1,3.726,3.035.444.444,0,0,1-.4.487Z" transform="translate(-352.078 -138.188)"/></g><g transform="translate(4.566 13.096)"><path class="e" d="M339.669,145.286a7.983,7.983,0,0,1-7.541-6.17.445.445,0,0,1,.872-.176,7.1,7.1,0,0,0,6.669,5.456h.03a.445.445,0,0,1,0,.889Z" transform="translate(-332.119 -138.584)"/></g></g><g transform="translate(147.586 140.032)"><rect class="c" width="0.356" height="63.289" transform="translate(0 0.02) rotate(-3.189)"/></g><g transform="translate(89.049 105.796)"><rect class="c" width="0.356" height="67.818" transform="matrix(0.503, -0.864, 0.864, 0.503, 0, 0.308)"/></g></g><text class="f" transform="translate(32 425)"><tspan x="0" y="0">Casting</tspan></text><text class="g" transform="translate(30 424)"><tspan x="0" y="0">Casting</tspan></text></g></svg>