<?xml version="1.0" encoding="utf-8"?>
<!-- Generator: Adobe Illustrator 13.0.0, SVG Export Plug-In . SVG Version: 6.00 Build 14948)  -->
<!DOCTYPE svg PUBLIC "-//W3C//DTD SVG 1.1//EN" "http://www.w3.org/Graphics/SVG/1.1/DTD/svg11.dtd">
<svg version="1.1" id="Layer_1" xmlns="http://www.w3.org/2000/svg" xmlns:xlink="http://www.w3.org/1999/xlink" x="0px" y="0px"
	 width="18px" height="21px" viewBox="0 0 18 21" enable-background="new 0 0 18 21" xml:space="preserve">
<g>
	<defs>
		<rect id="SVGID_1_" width="18" height="21"/>
	</defs>
	<clipPath id="SVGID_2_">
		<use xlink:href="#SVGID_1_"  overflow="visible"/>
	</clipPath>
	<path clip-path="url(#SVGID_2_)" d="M16,0H2C0.89,0,0,0.9,0,2v14c0,1.101,0.89,2,2,2h4l3,3l3-3h4c1.1,0,2-0.899,2-2V2
		C18,0.9,17.1,0,16,0 M16,16h-4.83l-0.59,0.59L9,18.17l-1.59-1.59L6.83,16H2V2h14V16z M8,13h2v2H8V13z M9,5c1.1,0,2,0.9,2,2
		c0,2-3,1.75-3,5h2c0-2.25,3-2.5,3-5c0-2.21-1.79-4-4-4S5,4.79,5,7h2C7,5.9,7.9,5,9,5"/>
</g>
</svg>
