<?xml version="1.0" encoding="utf-8"?>
<!-- Generator: Adobe Illustrator 13.0.0, SVG Export Plug-In . SVG Version: 6.00 Build 14948)  -->
<!DOCTYPE svg PUBLIC "-//W3C//DTD SVG 1.1//EN" "http://www.w3.org/Graphics/SVG/1.1/DTD/svg11.dtd">
<svg version="1.1" id="Layer_1" xmlns="http://www.w3.org/2000/svg" xmlns:xlink="http://www.w3.org/1999/xlink" x="0px" y="0px"
	 width="470.403px" height="470.928px" viewBox="0 0 470.403 470.928" enable-background="new 0 0 470.403 470.928"
	 xml:space="preserve">
<g>
	<defs>
		<rect id="SVGID_1_" width="470.403" height="470.928"/>
	</defs>
	<clipPath id="SVGID_2_">
		<use xlink:href="#SVGID_1_"  overflow="visible"/>
	</clipPath>
	<path clip-path="url(#SVGID_2_)" d="M235.141,470.927C105.641,471.119,0.064,365.429,0,235.536
		C-0.064,105.049,105.129-0.155,235.511,0c129.973,0.156,234.76,105.073,234.892,235.182
		C470.534,365.307,365.319,470.738,235.141,470.927 M393.261,393.198c62.669-60.979,86.677-162.752,44.357-253.412
		C396.677,52.08,299.783-0.36,204.004,13.502c-100.873,14.599-180.61,95.916-191.33,198.127
		c-3.812,36.352,0.908,71.607,14.36,105.639c13.46,34.053,34.058,62.97,62.832,88.021c0-9.363-0.245-17.145,0.04-24.908
		c1.883-51.216,41.438-96.745,92.093-104.406c16.472-2.491,33.464-1.92,50.223-2.053c20.107-0.157,40.308-0.67,60.313,0.914
		c47.808,3.784,89.656,42.709,97.825,89.996C391.957,374.071,392.306,383.525,393.261,393.198 M241.236,285.474v0.029
		c-13.798,0-27.601-0.201-41.396,0.037c-41.188,0.711-77.282,26.309-92.148,64.777c-6.391,16.537-6.869,33.688-6.654,51.031
		c0.167,13.528,0.025,13.538,11.247,20.791c51.978,33.597,108.477,44.085,168.967,32.016c35.923-7.167,67.973-23.071,96.217-46.45
		c1.613-1.336,3.42-3.643,3.432-5.508c0.059-9.795,0.461-19.718-0.877-29.371c-7.061-50.896-48.987-87.157-100.383-87.346
		C266.84,285.434,254.037,285.474,241.236,285.474"/>
	<path clip-path="url(#SVGID_2_)" d="M143.351,165.848c0.039-52.993,43.724-95.99,97.566-96.031
		c54.166-0.042,97.828,42.969,97.729,96.271c-0.1,53.01-43.807,95.857-97.719,95.796
		C187.088,261.824,143.313,218.738,143.351,165.848 M154.887,165.62c-0.131,46.562,38.292,84.582,85.812,84.911
		c47.336,0.327,86.607-38.089,86.598-84.713c-0.009-46.266-38.647-84.438-85.652-84.619
		C193.879,81.016,155.018,118.83,154.887,165.62"/>
</g>
</svg>
