<?xml version="1.0" encoding="utf-8"?>
<!-- Generator: Adobe Illustrator 13.0.0, SVG Export Plug-In . SVG Version: 6.00 Build 14948)  -->
<!DOCTYPE svg PUBLIC "-//W3C//DTD SVG 1.1//EN" "http://www.w3.org/Graphics/SVG/1.1/DTD/svg11.dtd">
<svg version="1.1" id="Layer_1" xmlns="http://www.w3.org/2000/svg" xmlns:xlink="http://www.w3.org/1999/xlink" x="0px" y="0px"
	 width="24px" height="24px" viewBox="0 0 24 24" enable-background="new 0 0 24 24" xml:space="preserve">
<g>
	<defs>
		<rect id="SVGID_1_" width="24" height="24"/>
	</defs>
	<clipPath id="SVGID_2_">
		<use xlink:href="#SVGID_1_"  overflow="visible"/>
	</clipPath>
	<path clip-path="url(#SVGID_2_)" d="M9,12c1.93,0,3.5-1.57,3.5-3.5C12.5,6.57,10.93,5,9,5S5.5,6.57,5.5,8.5C5.5,10.43,7.07,12,9,12
		 M9,7c0.83,0,1.5,0.67,1.5,1.5S9.83,10,9,10S7.5,9.33,7.5,8.5S8.17,7,9,7 M9.05,17H4.77c0.99-0.5,2.7-1,4.23-1
		c0.11,0,0.23,0.01,0.34,0.01c0.34-0.729,0.93-1.33,1.64-1.809C10.25,14.07,9.56,14,9,14c-2.34,0-7,1.17-7,3.5V19h7v-1.5
		C9,17.33,9.02,17.16,9.05,17 M16.5,14.5c-1.84,0-5.5,1.01-5.5,3V19h11v-1.5C22,15.51,18.34,14.5,16.5,14.5 M17.71,12.68
		C18.47,12.25,19,11.44,19,10.5C19,9.12,17.88,8,16.5,8S14,9.12,14,10.5c0,0.94,0.53,1.75,1.29,2.18c0.36,0.2,0.77,0.32,1.21,0.32
		S17.35,12.88,17.71,12.68"/>
</g>
</svg>
