<svg xmlns="http://www.w3.org/2000/svg" width="87.655" height="107.229" viewBox="0 0 87.655 107.229"><defs><style>.a{fill:#9dd26e;}.b{fill:#93d8d0;}.c{fill:#231f20;}</style></defs><g transform="translate(-37.973 -241.787)"><g transform="translate(42.192 241.787)"><path class="a" d="M203.715,166.736l-13.033-15.654a2.638,2.638,0,0,1-1.944,1.541l-20.873,4.617h20.043a3.867,3.867,0,0,1,3.862,3.862v22.513H195.8a10.293,10.293,0,0,0,7.91-16.879Z" transform="translate(-122.662 -97.33)"/><path class="a" d="M77,43.74A16.948,16.948,0,1,0,93.416,22.615c-.519,0-1.031.032-1.538.078-1.6-2.483-4.754-5.355-10.8-5.355-10.637,0-11.934,14.529-11.934,14.529s-1.076,9.587-10.923,10a2.91,2.91,0,0,0-2.321,1.3l-.028.043a2.884,2.884,0,0,0,.722,3.941,17.083,17.083,0,0,0,10.077,2.877C70.8,50.028,74.448,46.953,77,43.74ZM92.928,24.524l-.078.011,0-.007Zm.488,30.118A15.085,15.085,0,0,1,78.8,43.181a16.846,16.846,0,0,0,15.976-10.4c2.2,2.763,7.422,8.323,13.642,8.142A15.086,15.086,0,0,1,93.416,54.642Z" transform="translate(-55.394 -17.338)"/><path class="a" d="M149.434,146.259H112.052l37.805-8.341a1.028,1.028,0,0,0,.762-1.2l-.123-.553-1.288-5.814a.99.99,0,0,0-1.18-.752l-3.279.725-40.427,8.944a1.027,1.027,0,0,0-.762,1.2l7.668,34.387a1.978,1.978,0,0,0,1.931,1.548h36.273a1.978,1.978,0,0,0,1.978-1.978V170.75h-2.943a10.243,10.243,0,0,1-7.277-3.034l-.58-.586a8.239,8.239,0,0,1-2.387-5.8,1.884,1.884,0,0,1,1.884-1.884h11.3V148.237A1.978,1.978,0,0,0,149.434,146.259Zm-30.341-3.743a.84.84,0,0,1-.524.372l-6.5,1.487-.192.044a.823.823,0,0,1-.514-.044.84.84,0,0,1-.385-1.221l2.292-3.652a.84.84,0,0,1,.524-.372l6.694-1.531a.84.84,0,0,1,.9,1.265Zm27.6-10.866a.839.839,0,0,1,1.005.631l.178.776.5,2.2a.839.839,0,0,1-.631,1.006l-7.2,1.648a.839.839,0,0,1-.9-1.264l2.292-3.652a.84.84,0,0,1,.524-.372l4.025-.92Zm-11.007,4.007-2.292,3.652a.84.84,0,0,1-.524.372l-6.694,1.531a.84.84,0,0,1-.9-1.265l2.292-3.652a.84.84,0,0,1,.524-.372l6.694-1.531A.839.839,0,0,1,135.687,135.657Zm-24.7,19.489a.989.989,0,0,1-.7-1.688l3.593-3.593a.989.989,0,0,1,.7-.29h7.1a.989.989,0,0,1,.7,1.688l-3.593,3.593a.989.989,0,0,1-.7.29Zm21.59,14.192a1.411,1.411,0,0,1-1.411,1.411H116.087a1.411,1.411,0,0,1-1.411-1.411v0a1.411,1.411,0,0,1,1.411-1.411h15.075a1.411,1.411,0,0,1,1.411,1.411Zm-1.413-5.183h-17.9a1.413,1.413,0,0,1,0-2.826h17.9a1.413,1.413,0,0,1,0,2.826Zm5.773-12.892-3.593,3.593a.988.988,0,0,1-.7.29h-7.1a.989.989,0,0,1-.7-1.688l3.593-3.593a.988.988,0,0,1,.7-.29h7.1A.989.989,0,0,1,136.933,151.264Zm11.318,2.893a.989.989,0,0,1-.989.989h-7.72a.989.989,0,0,1-.7-1.688l3.593-3.593a.989.989,0,0,1,.7-.29h4.128a.989.989,0,0,1,.989.989Z" transform="translate(-84.189 -84.464)"/><path class="a" d="M82.756,171.427s-.058-.294-.091-.444l-5.623-25.221-.014,0-.408-1.839L75,136.594a2.873,2.873,0,0,1,2.184-3.427l38.545-8.527a19.767,19.767,0,0,0-9.107-2.227H83.708a19.78,19.78,0,0,0-15.634,7.663l-5.272,6.8a18.84,18.84,0,0,0-2.053,19.779l8.9,18.3.043-.012,2.958,6.537a10.077,10.077,0,0,0,12.133,5.488h0a1.884,1.884,0,0,0,1.278-2.256Zm-.92,14.1a8.217,8.217,0,0,1-7.471-4.822l-2.126-4.7,9.065-2.615,2.927,11.777A8.193,8.193,0,0,1,81.835,185.528Z" transform="translate(-57.463 -80.183)"/></g><g transform="translate(37.973 241.787)"><path class="b" d="M203.715,166.736l-13.033-15.654a2.638,2.638,0,0,1-1.944,1.541l-20.873,4.617h20.043a3.867,3.867,0,0,1,3.862,3.862v22.513H195.8a10.293,10.293,0,0,0,7.91-16.879Z" transform="translate(-122.662 -97.33)"/><path class="b" d="M77,43.74A16.948,16.948,0,1,0,93.416,22.615c-.519,0-1.031.032-1.538.078-1.6-2.483-4.754-5.355-10.8-5.355-10.637,0-11.934,14.529-11.934,14.529s-1.076,9.587-10.923,10a2.91,2.91,0,0,0-2.321,1.3l-.028.043a2.884,2.884,0,0,0,.722,3.941,17.083,17.083,0,0,0,10.077,2.877C70.8,50.028,74.448,46.953,77,43.74ZM92.928,24.524l-.078.011,0-.007Zm.488,30.118A15.085,15.085,0,0,1,78.8,43.181a16.846,16.846,0,0,0,15.976-10.4c2.2,2.763,7.422,8.323,13.642,8.142A15.086,15.086,0,0,1,93.416,54.642Z" transform="translate(-55.394 -17.338)"/><path class="b" d="M149.434,146.259H112.052l37.805-8.341a1.028,1.028,0,0,0,.762-1.2l-.123-.553-1.288-5.814a.99.99,0,0,0-1.18-.752l-3.279.725-40.427,8.944a1.027,1.027,0,0,0-.762,1.2l7.668,34.387a1.978,1.978,0,0,0,1.931,1.548h36.273a1.978,1.978,0,0,0,1.978-1.978V170.75h-2.943a10.243,10.243,0,0,1-7.277-3.034l-.58-.586a8.239,8.239,0,0,1-2.387-5.8,1.884,1.884,0,0,1,1.884-1.884h11.3V148.237A1.978,1.978,0,0,0,149.434,146.259Zm-30.341-3.743a.84.84,0,0,1-.524.372l-6.5,1.487-.192.044a.823.823,0,0,1-.514-.044.84.84,0,0,1-.385-1.221l2.292-3.652a.84.84,0,0,1,.524-.372l6.694-1.531a.84.84,0,0,1,.9,1.265Zm27.6-10.866a.839.839,0,0,1,1.005.631l.178.776.5,2.2a.839.839,0,0,1-.631,1.006l-7.2,1.648a.839.839,0,0,1-.9-1.264l2.292-3.652a.84.84,0,0,1,.524-.372l4.025-.92Zm-11.007,4.007-2.292,3.652a.84.84,0,0,1-.524.372l-6.694,1.531a.84.84,0,0,1-.9-1.265l2.292-3.652a.84.84,0,0,1,.524-.372l6.694-1.531A.839.839,0,0,1,135.687,135.657Zm-24.7,19.489a.989.989,0,0,1-.7-1.688l3.593-3.593a.989.989,0,0,1,.7-.29h7.1a.989.989,0,0,1,.7,1.688l-3.593,3.593a.989.989,0,0,1-.7.29Zm21.59,14.192a1.411,1.411,0,0,1-1.411,1.411H116.087a1.411,1.411,0,0,1-1.411-1.411v0a1.411,1.411,0,0,1,1.411-1.411h15.075a1.411,1.411,0,0,1,1.411,1.411Zm-1.413-5.183h-17.9a1.413,1.413,0,0,1,0-2.826h17.9a1.413,1.413,0,0,1,0,2.826Zm5.773-12.892-3.593,3.593a.988.988,0,0,1-.7.29h-7.1a.989.989,0,0,1-.7-1.688l3.593-3.593a.988.988,0,0,1,.7-.29h7.1A.989.989,0,0,1,136.933,151.264Zm11.318,2.893a.989.989,0,0,1-.989.989h-7.72a.989.989,0,0,1-.7-1.688l3.593-3.593a.989.989,0,0,1,.7-.29h4.128a.989.989,0,0,1,.989.989Z" transform="translate(-84.189 -84.464)"/><path class="b" d="M82.756,171.427s-.058-.294-.091-.444l-5.623-25.221-.014,0-.408-1.839L75,136.594a2.873,2.873,0,0,1,2.184-3.427l38.545-8.527a19.767,19.767,0,0,0-9.107-2.227H83.708a19.78,19.78,0,0,0-15.634,7.663l-5.272,6.8a18.84,18.84,0,0,0-2.053,19.779l8.9,18.3.043-.012,2.958,6.537a10.077,10.077,0,0,0,12.133,5.488h0a1.884,1.884,0,0,0,1.278-2.256Zm-.92,14.1a8.217,8.217,0,0,1-7.471-4.822l-2.126-4.7,9.065-2.615,2.927,11.777A8.193,8.193,0,0,1,81.835,185.528Z" transform="translate(-57.463 -80.183)"/></g><g transform="translate(40.083 241.787)"><path class="c" d="M203.715,166.736l-13.033-15.654a2.638,2.638,0,0,1-1.944,1.541l-20.873,4.617h20.043a3.867,3.867,0,0,1,3.862,3.862v22.513H195.8a10.293,10.293,0,0,0,7.91-16.879Z" transform="translate(-122.662 -97.33)"/><path class="c" d="M77,43.74A16.948,16.948,0,1,0,93.416,22.615c-.519,0-1.031.032-1.538.078-1.6-2.483-4.754-5.355-10.8-5.355-10.637,0-11.934,14.529-11.934,14.529s-1.076,9.587-10.923,10a2.91,2.91,0,0,0-2.321,1.3l-.028.043a2.884,2.884,0,0,0,.722,3.941,17.083,17.083,0,0,0,10.077,2.877C70.8,50.028,74.448,46.953,77,43.74ZM92.928,24.524l-.078.011,0-.007Zm.488,30.118A15.085,15.085,0,0,1,78.8,43.181a16.846,16.846,0,0,0,15.976-10.4c2.2,2.763,7.422,8.323,13.642,8.142A15.086,15.086,0,0,1,93.416,54.642Z" transform="translate(-55.394 -17.338)"/><path class="c" d="M149.434,146.259H112.052l37.805-8.341a1.028,1.028,0,0,0,.762-1.2l-.123-.553-1.288-5.814a.99.99,0,0,0-1.18-.752l-3.279.725-40.427,8.944a1.027,1.027,0,0,0-.762,1.2l7.668,34.387a1.978,1.978,0,0,0,1.931,1.548h36.273a1.978,1.978,0,0,0,1.978-1.978V170.75h-2.943a10.243,10.243,0,0,1-7.277-3.034l-.58-.586a8.239,8.239,0,0,1-2.387-5.8,1.884,1.884,0,0,1,1.884-1.884h11.3V148.237A1.978,1.978,0,0,0,149.434,146.259Zm-30.341-3.743a.84.84,0,0,1-.524.372l-6.5,1.487-.192.044a.823.823,0,0,1-.514-.044.84.84,0,0,1-.385-1.221l2.292-3.652a.84.84,0,0,1,.524-.372l6.694-1.531a.84.84,0,0,1,.9,1.265Zm27.6-10.866a.839.839,0,0,1,1.005.631l.178.776.5,2.2a.839.839,0,0,1-.631,1.006l-7.2,1.648a.839.839,0,0,1-.9-1.264l2.292-3.652a.84.84,0,0,1,.524-.372l4.025-.92Zm-11.007,4.007-2.292,3.652a.84.84,0,0,1-.524.372l-6.694,1.531a.84.84,0,0,1-.9-1.265l2.292-3.652a.84.84,0,0,1,.524-.372l6.694-1.531A.839.839,0,0,1,135.687,135.657Zm-24.7,19.489a.989.989,0,0,1-.7-1.688l3.593-3.593a.989.989,0,0,1,.7-.29h7.1a.989.989,0,0,1,.7,1.688l-3.593,3.593a.989.989,0,0,1-.7.29Zm21.59,14.192a1.411,1.411,0,0,1-1.411,1.411H116.087a1.411,1.411,0,0,1-1.411-1.411v0a1.411,1.411,0,0,1,1.411-1.411h15.075a1.411,1.411,0,0,1,1.411,1.411Zm-1.413-5.183h-17.9a1.413,1.413,0,0,1,0-2.826h17.9a1.413,1.413,0,0,1,0,2.826Zm5.773-12.892-3.593,3.593a.988.988,0,0,1-.7.29h-7.1a.989.989,0,0,1-.7-1.688l3.593-3.593a.988.988,0,0,1,.7-.29h7.1A.989.989,0,0,1,136.933,151.264Zm11.318,2.893a.989.989,0,0,1-.989.989h-7.72a.989.989,0,0,1-.7-1.688l3.593-3.593a.989.989,0,0,1,.7-.29h4.128a.989.989,0,0,1,.989.989Z" transform="translate(-84.189 -84.464)"/><path class="c" d="M82.756,171.427s-.058-.294-.091-.444l-5.623-25.221-.014,0-.408-1.839L75,136.594a2.873,2.873,0,0,1,2.184-3.427l38.545-8.527a19.767,19.767,0,0,0-9.107-2.227H83.708a19.78,19.78,0,0,0-15.634,7.663l-5.272,6.8a18.84,18.84,0,0,0-2.053,19.779l8.9,18.3.043-.012,2.958,6.537a10.077,10.077,0,0,0,12.133,5.488h0a1.884,1.884,0,0,0,1.278-2.256Zm-.92,14.1a8.217,8.217,0,0,1-7.471-4.822l-2.126-4.7,9.065-2.615,2.927,11.777A8.193,8.193,0,0,1,81.835,185.528Z" transform="translate(-57.463 -80.183)"/></g></g></svg>