<?xml version="1.0" encoding="utf-8"?>
<!-- Generator: Adobe Illustrator 13.0.0, SVG Export Plug-In . SVG Version: 6.00 Build 14948)  -->
<!DOCTYPE svg PUBLIC "-//W3C//DTD SVG 1.1//EN" "http://www.w3.org/Graphics/SVG/1.1/DTD/svg11.dtd">
<svg version="1.1" id="Layer_1" xmlns="http://www.w3.org/2000/svg" xmlns:xlink="http://www.w3.org/1999/xlink" x="0px" y="0px"
	 width="30px" height="30px" viewBox="0 0 30 30" enable-background="new 0 0 30 30" xml:space="preserve">
<g>
	<defs>
		<rect id="SVGID_1_" width="30" height="30"/>
	</defs>
	<clipPath id="SVGID_2_">
		<use xlink:href="#SVGID_1_"  overflow="visible"/>
	</clipPath>
	<path clip-path="url(#SVGID_2_)" d="M15,0C6.716,0,0,6.715,0,15c0,8.284,6.716,15,15,15s15-6.716,15-15
		C29.99,6.719,23.28,0.009,15,0 M15,28C7.82,28,2,22.181,2,15C2,7.82,7.82,2,15,2c7.18,0,13,5.82,13,13
		C27.992,22.176,22.177,27.991,15,28"/>
	<path clip-path="url(#SVGID_2_)" d="M17,22h-1V10c0-0.552-0.448-1-1-1h-2c-0.552,0-1,0.448-1,1c0,0.552,0.448,1,1,1h1v11h-1
		c-0.552,0-1,0.447-1,1c0,0.552,0.448,1,1,1h4c0.553,0,1-0.448,1-1C18,22.447,17.553,22,17,22"/>
	<path clip-path="url(#SVGID_2_)" d="M15,5c0.552,0,1,0.448,1,1c0,0.552-0.448,1-1,1s-1-0.448-1-1C14,5.448,14.448,5,15,5"/>
</g>
</svg>
