<svg xmlns="http://www.w3.org/2000/svg" width="91.694" height="87.527" viewBox="0 0 91.694 87.527"><defs><style>.a{fill:#78cfff;}.b{fill:#ff6e61;}</style></defs><g transform="translate(-30.871 -243.553)"><g transform="translate(14.172 226.601)"><g transform="translate(16.699 19.805)"><path class="a" d="M155.515,79.931a8.636,8.636,0,0,1,3.7-3.7,8.634,8.634,0,0,1-3.7-3.7,8.636,8.636,0,0,1-3.7,3.7A8.64,8.64,0,0,1,155.515,79.931Z" transform="translate(-107.88 -55.392)"/><path class="a" d="M37.064,57.251a5.716,5.716,0,1,0-5.716-5.716A5.723,5.723,0,0,0,37.064,57.251Z" transform="translate(-26.584 -37.36)"/><path class="a" d="M29.084,110.272H23.368v53.35H16.7v1.905H35.753v-1.905H29.084Z" transform="translate(-16.699 -80.854)"/><path class="a" d="M104.412,30.461a12.454,12.454,0,0,1,5.328-5.328,12.449,12.449,0,0,1-5.328-5.328,12.444,12.444,0,0,1-5.328,5.328A12.449,12.449,0,0,1,104.412,30.461Z" transform="translate(-75.03 -21.216)"/><path class="a" d="M240.9,86.835H227.565a2.858,2.858,0,0,0,0,5.716H240.9a2.858,2.858,0,0,0,0-5.716Z" transform="translate(-157.067 -65.038)"/><path class="a" d="M242.142,57.251a5.716,5.716,0,1,0-5.716-5.716A5.723,5.723,0,0,0,242.142,57.251Z" transform="translate(-164.975 -37.36)"/><path class="a" d="M22.487,92.551H35.825a2.858,2.858,0,1,0,0-5.716H22.487a2.858,2.858,0,1,0,0,5.716Z" transform="translate(-18.676 -65.038)"/><path class="a" d="M117.806,117.894v-7.622h-8.485a8.183,8.183,0,0,0-2.925,5.716h-.022a17.148,17.148,0,1,1-34.3,0h-.022a8.182,8.182,0,0,0-2.925-5.716H60.645v7.622h9.622a19.054,19.054,0,0,0,37.917,0Z" transform="translate(-46.355 -80.854)"/><path class="a" d="M234.162,110.272h-5.716v53.35h-6.669v1.905h19.054v-1.905h-6.669Z" transform="translate(-155.09 -80.854)"/></g></g><g transform="translate(19.172 226.601)"><g transform="translate(16.699 19.805)"><path class="b" d="M155.515,79.931a8.636,8.636,0,0,1,3.7-3.7,8.634,8.634,0,0,1-3.7-3.7,8.636,8.636,0,0,1-3.7,3.7A8.64,8.64,0,0,1,155.515,79.931Z" transform="translate(-107.88 -55.392)"/><path class="b" d="M37.064,57.251a5.716,5.716,0,1,0-5.716-5.716A5.723,5.723,0,0,0,37.064,57.251Z" transform="translate(-26.584 -37.36)"/><path class="b" d="M29.084,110.272H23.368v53.35H16.7v1.905H35.753v-1.905H29.084Z" transform="translate(-16.699 -80.854)"/><path class="b" d="M104.412,30.461a12.454,12.454,0,0,1,5.328-5.328,12.449,12.449,0,0,1-5.328-5.328,12.444,12.444,0,0,1-5.328,5.328A12.449,12.449,0,0,1,104.412,30.461Z" transform="translate(-72.822 -21.216)"/><path class="b" d="M240.9,86.835H227.565a2.858,2.858,0,0,0,0,5.716H240.9a2.858,2.858,0,0,0,0-5.716Z" transform="translate(-157.067 -65.038)"/><path class="b" d="M242.142,57.251a5.716,5.716,0,1,0-5.716-5.716A5.723,5.723,0,0,0,242.142,57.251Z" transform="translate(-164.975 -37.36)"/><path class="b" d="M22.487,92.551H35.825a2.858,2.858,0,1,0,0-5.716H22.487a2.858,2.858,0,1,0,0,5.716Z" transform="translate(-18.676 -65.038)"/><path class="b" d="M117.806,117.894v-7.622h-8.485a8.183,8.183,0,0,0-2.925,5.716h-.022a17.148,17.148,0,1,1-34.3,0h-.022a8.182,8.182,0,0,0-2.925-5.716H60.645v7.622h9.622a19.054,19.054,0,0,0,37.917,0Z" transform="translate(-46.355 -80.854)"/><path class="b" d="M234.162,110.272h-5.716v53.35h-6.669v1.905h19.054v-1.905h-6.669Z" transform="translate(-155.09 -80.854)"/></g></g><g transform="translate(17.172 225.601)"><g transform="translate(16.699 19.805)"><path d="M155.515,79.931a8.636,8.636,0,0,1,3.7-3.7,8.634,8.634,0,0,1-3.7-3.7,8.636,8.636,0,0,1-3.7,3.7A8.64,8.64,0,0,1,155.515,79.931Z" transform="translate(-107.88 -55.392)"/><path d="M37.064,57.251a5.716,5.716,0,1,0-5.716-5.716A5.723,5.723,0,0,0,37.064,57.251Z" transform="translate(-26.584 -37.36)"/><path d="M29.084,110.272H23.368v53.35H16.7v1.905H35.753v-1.905H29.084Z" transform="translate(-16.699 -80.854)"/><path d="M104.412,30.461a12.454,12.454,0,0,1,5.328-5.328,12.449,12.449,0,0,1-5.328-5.328,12.444,12.444,0,0,1-5.328,5.328A12.449,12.449,0,0,1,104.412,30.461Z" transform="translate(-73.705 -21.658)"/><path d="M240.9,86.835H227.565a2.858,2.858,0,0,0,0,5.716H240.9a2.858,2.858,0,0,0,0-5.716Z" transform="translate(-157.067 -65.038)"/><path d="M242.142,57.251a5.716,5.716,0,1,0-5.716-5.716A5.723,5.723,0,0,0,242.142,57.251Z" transform="translate(-164.975 -37.36)"/><path d="M22.487,92.551H35.825a2.858,2.858,0,1,0,0-5.716H22.487a2.858,2.858,0,1,0,0,5.716Z" transform="translate(-18.676 -65.038)"/><path d="M117.806,117.894v-7.622h-8.485a8.183,8.183,0,0,0-2.925,5.716h-.022c0,9.456-7.693,16.612-17.148,16.612s-17.148-7.157-17.148-16.612h-.022a8.182,8.182,0,0,0-2.925-5.716H60.645v7.622h9.622c.959,9.615,9.1,18.779,18.958,18.779s18-9.164,18.959-18.779Z" transform="translate(-46.355 -80.854)"/><path d="M234.162,110.272h-5.716v53.35h-6.669v1.905h19.054v-1.905h-6.669Z" transform="translate(-155.09 -80.854)"/></g></g></g></svg>