<?xml version="1.0" encoding="utf-8"?>
<!-- Generator: Adobe Illustrator 13.0.0, SVG Export Plug-In . SVG Version: 6.00 Build 14948)  -->
<!DOCTYPE svg PUBLIC "-//W3C//DTD SVG 1.1//EN" "http://www.w3.org/Graphics/SVG/1.1/DTD/svg11.dtd">
<svg version="1.1" id="Layer_1" xmlns="http://www.w3.org/2000/svg" xmlns:xlink="http://www.w3.org/1999/xlink" x="0px" y="0px"
	 width="83.212px" height="66.5px" viewBox="0 0 83.212 66.5" enable-background="new 0 0 83.212 66.5" xml:space="preserve">
<g>
	<defs>
		<rect id="SVGID_1_" width="83.212" height="66.5"/>
	</defs>
	<clipPath id="SVGID_2_">
		<use xlink:href="#SVGID_1_"  overflow="visible"/>
	</clipPath>
	<path clip-path="url(#SVGID_2_)" d="M45.077,1.9c-0.8-1.3-2.1-1.9-3.5-1.9c-1.3,0-2.7,0.6-3.5,1.9l-37.4,58.2
		c-1.8,2.799,0.2,6.399,3.5,6.399h74.9c3.3,0,5.2-3.601,3.5-6.399L45.077,1.9z M5.777,61.5l35.8-55.8l35.9,55.8H5.777z"/>
	<path clip-path="url(#SVGID_2_)" d="M35.677,29.7c-1.4,1.2-2.1,2.8-2.2,5h4.3c0-1.1,0.3-1.9,1-2.4c0.7-0.5,1.5-0.8,2.5-0.8
		c1.2,0,2,0.3,2.6,0.9c0.601,0.6,0.9,1.5,0.9,2.7c0,1-0.3,1.9-0.8,2.7s-1.2,1.7-2.1,2.601c-1.3,1.1-2.2,2-2.5,2.699
		c-0.3,0.7-0.6,1.9-0.6,3.601h4.3c0-1,0.1-1.8,0.2-2.3c0.1-0.5,0.6-1.101,1.3-1.7c1.3-1.101,2.4-2.2,3.3-3.5
		c0.9-1.3,1.3-2.601,1.3-4.101c0-2.3-0.699-4-2-5.2c-1.3-1.2-3.3-1.9-5.799-1.9C38.977,28,37.077,28.5,35.677,29.7"/>
	<rect x="38.777" y="49.8" clip-path="url(#SVGID_2_)" width="4.4" height="4.101"/>
</g>
</svg>
