<?xml version="1.0" encoding="utf-8"?>
<!-- Generator: Adobe Illustrator 13.0.0, SVG Export Plug-In . SVG Version: 6.00 Build 14948)  -->
<!DOCTYPE svg PUBLIC "-//W3C//DTD SVG 1.1//EN" "http://www.w3.org/Graphics/SVG/1.1/DTD/svg11.dtd">
<svg version="1.1" id="Layer_1" xmlns="http://www.w3.org/2000/svg" xmlns:xlink="http://www.w3.org/1999/xlink" x="0px" y="0px"
	 width="19.213px" height="14px" viewBox="0 0 19.213 14" enable-background="new 0 0 19.213 14" xml:space="preserve">
<g>
	<defs>
		<rect id="SVGID_1_" width="19.213" height="14"/>
	</defs>
	<clipPath id="SVGID_2_">
		<use xlink:href="#SVGID_1_"  overflow="visible"/>
	</clipPath>
	<path clip-path="url(#SVGID_2_)" d="M19.187,11.09l-1.09-7.66C17.815,1.46,16.126,0,14.137,0h-9.06c-1.99,0-3.68,1.46-3.961,3.43
		l-1.09,7.66C-0.193,12.63,0.997,14,2.546,14c0.681,0,1.32-0.271,1.801-0.75L6.607,11h6l2.25,2.25c0.48,0.479,1.129,0.75,1.799,0.75
		C18.217,14,19.405,12.63,19.187,11.09 M17.087,11.81c-0.08,0.09-0.211,0.19-0.421,0.19c-0.149,0-0.29-0.061-0.391-0.16L13.437,9
		H5.776l-2.839,2.84c-0.1,0.1-0.241,0.16-0.391,0.16c-0.209,0-0.339-0.101-0.419-0.19c-0.081-0.09-0.161-0.229-0.13-0.438
		l1.09-7.661C3.236,2.74,4.087,2,5.077,2h9.06c0.989,0,1.84,0.74,1.979,1.72l1.091,7.66C17.235,11.581,17.155,11.72,17.087,11.81"/>
	<polygon clip-path="url(#SVGID_2_)" points="6.606,3 5.606,3 5.606,5 3.606,5 3.606,6 5.606,6 5.606,8 6.606,8 6.606,6 8.606,6 
		8.606,5 6.606,5 	"/>
	<path clip-path="url(#SVGID_2_)" d="M14.606,6c0.553,0,1,0.448,1,1c0,0.552-0.447,1-1,1s-1-0.448-1-1
		C13.606,6.448,14.054,6,14.606,6"/>
	<path clip-path="url(#SVGID_2_)" d="M12.606,3c0.553,0,1,0.448,1,1c0,0.552-0.447,1-1,1s-1-0.448-1-1
		C11.606,3.448,12.054,3,12.606,3"/>
</g>
</svg>
